<svg xmlns="http://www.w3.org/2000/svg" id="flag-icon-css-us" viewBox="0 0 640 480">
  <g fill-rule="evenodd">
    <path fill="#bd3d44" d="M0 0h972.8v39.4H0zm0 78.8h972.8v39.4H0zm0 78.7h972.8V197H0zm0 78.8h972.8v39.4H0zm0 78.8h972.8v39.4H0zm0 78.7h972.8v39.4H0zm0 78.8h972.8V512H0z" transform="scale(.9375)"/>
    <path fill="#fff" d="M0 39.4h972.8v39.4H0zm0 78.8h972.8v39.3H0zm0 78.7h972.8v39.4H0zm0 78.8h972.8v39.4H0zm0 78.8h972.8v39.4H0zm0 78.7h972.8v39.4H0z" transform="scale(.9375)"/>
    <path fill="#192f5d" d="M0 0h389.1v275.7H0z" transform="scale(.9375)"/>
  </g>
</svg>
